<?xml version="1.0" standalone="no"?>
<!DOCTYPE svg PUBLIC "-//W3C//DTD SVG 20010904//EN"
 "http://www.w3.org/TR/2001/REC-SVG-20010904/DTD/svg10.dtd">
<svg version="1.0" xmlns="http://www.w3.org/2000/svg"
 width="221.000000pt" height="221.000000pt" viewBox="0 0 221.000000 221.000000"
 preserveAspectRatio="xMidYMid meet">
<metadata>
Created by potrace 1.11, written by Peter Selinger 2001-2013
</metadata>
<g transform="translate(0.000000,221.000000) scale(0.100000,-0.100000)"
fill="#000000" stroke="none">
<path d="M1647 2133 c-1 -1 -69 -4 -152 -7 -82 -3 -193 -8 -245 -11 -91 -5
-136 -7 -445 -20 -143 -6 -299 -15 -301 -18 -2 -2 -9 -150 -20 -387 -7 -145
-12 -237 -19 -360 -5 -100 -10 -194 -20 -395 -3 -49 -6 -106 -8 -125 -3 -35
-1 -38 64 -94 11 -9 22 -16 27 -16 4 0 21 -14 39 -30 18 -17 35 -30 38 -30 6
0 83 -58 95 -70 3 -3 21 -17 40 -30 19 -14 40 -28 45 -32 6 -5 28 -22 50 -38
22 -16 45 -33 50 -38 6 -4 37 -28 70 -52 33 -25 62 -48 63 -52 2 -5 8 -8 14
-8 12 0 39 -26 33 -32 -14 -14 34 -2 57 13 14 11 31 19 37 19 6 0 11 4 11 8 0
5 12 15 28 23 15 8 48 29 73 46 26 18 50 33 54 33 4 0 21 10 38 23 17 12 40
27 50 32 9 6 71 45 137 88 66 42 125 77 130 77 6 0 10 3 10 8 0 4 27 23 60 42
l60 35 -5 160 c-3 88 -8 257 -11 375 -4 212 -12 582 -17 772 l-2 98 -63 -3
c-35 -1 -64 -3 -65 -4z"/>
</g>
</svg>
